<svg width="40" height="40" viewBox="0 0 40 40" fill="none" xmlns="http://www.w3.org/2000/svg">
<path d="M28.3333 15L18.3333 25M28.3333 25L18.3333 15L28.3333 25Z" stroke="#707070" stroke-width="3" stroke-linecap="round"/>
<path d="M12.3333 8C12.6438 7.58601 13.0464 7.25 13.5093 7.01857C13.9721 6.78715 14.4825 6.66666 15 6.66666H33.3333C34.2174 6.66666 35.0652 7.01785 35.6904 7.64297C36.3155 8.2681 36.6667 9.11594 36.6667 10V30C36.6667 30.8841 36.3155 31.7319 35.6904 32.357C35.0652 32.9821 34.2174 33.3333 33.3333 33.3333H15C14.4825 33.3333 13.9721 33.2128 13.5093 32.9814C13.0464 32.75 12.6438 32.414 12.3333 32L4.83333 22C4.40059 21.423 4.16667 20.7212 4.16667 20C4.16667 19.2788 4.40059 18.577 4.83333 18L12.3333 8V8Z" stroke="#707070" stroke-width="3" stroke-linecap="round" stroke-linejoin="round"/>
</svg>
