<svg width="36" height="36" viewBox="0 0 36 36" fill="none" xmlns="http://www.w3.org/2000/svg">
<path d="M35.4375 17.967C35.4553 27.5745 27.6202 35.4307 18.0127 35.4374C13.8632 35.4404 10.0517 33.9939 7.05642 31.5765C6.27757 30.9479 6.21935 29.7806 6.92712 29.0729L7.71933 28.2807C8.32465 27.6754 9.29102 27.6091 9.96166 28.1412C12.1684 29.8923 14.9612 30.9375 18 30.9375C25.1511 30.9375 30.9375 25.15 30.9375 18C30.9375 10.8489 25.15 5.0625 18 5.0625C14.5678 5.0625 11.4505 6.39626 9.13584 8.57334L12.7045 12.142C13.4132 12.8507 12.9113 14.0625 11.909 14.0625H1.6875C1.06615 14.0625 0.5625 13.5589 0.5625 12.9375V2.71596C0.5625 1.71373 1.77427 1.21177 2.48302 1.92045L5.95448 5.39191C9.08501 2.40019 13.3279 0.5625 18 0.5625C27.6194 0.5625 35.4197 8.35172 35.4375 17.967ZM22.7171 23.5065L23.4078 22.6185C23.98 21.8828 23.8475 20.8226 23.1118 20.2504L20.25 18.0245V10.6875C20.25 9.75551 19.4945 9 18.5625 9H17.4375C16.5055 9 15.75 9.75551 15.75 10.6875V20.2255L20.3491 23.8025C21.0847 24.3747 22.1449 24.2422 22.7171 23.5065Z" fill="#707070"/>
</svg>
